# Blender v2.79 (sub 0) OBJ File: 'Cloud1.blend'
# www.blender.org
mtllib Cloud2.mtl
o Icosphere_Icosphere.001
v -1.094065 -0.467467 1.462728
v 0.720674 -0.354532 1.998967
v -1.711093 -0.323589 2.330390
v -3.049313 -0.323585 1.462728
v -1.711093 -0.323589 0.595065
v 0.720674 -0.354532 0.926488
v -0.033316 0.098386 2.330390
v -2.875077 0.140933 1.998967
v -2.875077 0.140933 0.926488
v -0.493592 0.148669 0.595065
v 0.894909 0.109986 1.462728
v -0.589850 0.546186 1.462728
v -1.561464 -0.454378 1.972723
v -0.025906 -0.489188 1.777919
v -0.225027 -0.438488 2.287920
v 0.850255 -0.434618 1.462728
v -0.025906 -0.489188 1.147536
v -1.932003 -0.454375 1.462728
v -2.838951 -0.403676 1.972724
v -1.561464 -0.454378 0.952733
v -2.838951 -0.403676 0.952731
v -0.225027 -0.438488 0.637536
v 0.952674 -0.346174 1.777920
v 0.952674 -0.346174 1.147535
v -1.429178 -0.315231 2.482728
v 0.106388 -0.350042 2.287925
v -3.107077 -0.315231 1.777920
v -2.028719 -0.315231 2.287925
v -2.028719 -0.315231 0.637531
v -3.107077 -0.315231 1.147535
v 0.106388 -0.350042 0.637531
v -1.429178 -0.315231 0.442728
v 0.684548 0.190077 1.972724
v -1.697304 0.221021 2.287920
v -2.907962 0.348659 1.462728
v -1.828811 0.112721 0.637536
v 0.684548 0.190077 0.952731
v -0.300373 0.440268 1.972723
v 0.484028 0.571773 1.462728
v -1.859139 0.393853 1.777919
v -2.311679 0.428664 1.147536
v -1.530356 0.668472 0.952732
vt 0.000000 0.000000
vt 1.000000 0.000000
vt 1.000000 1.000000
vt 0.000000 0.000000
vt 1.000000 1.000000
vt 1.000000 0.000000
vt 1.000000 1.000000
vt 1.000000 0.000000
vt 1.000000 1.000000
vt 1.000000 0.000000
vt 1.000000 1.000000
vt 1.000000 0.000000
vt 1.000000 1.000000
vt 0.000000 0.000000
vt 1.000000 0.000000
vt 1.000000 1.000000
vt 0.000000 0.000000
vt 1.000000 0.000000
vt 1.000000 1.000000
vt 0.000000 0.000000
vt 1.000000 0.000000
vt 1.000000 1.000000
vt 0.000000 0.000000
vt 1.000000 0.000000
vt 1.000000 1.000000
vt 1.000000 0.000000
vt 1.000000 1.000000
vt 1.000000 0.000000
vt 1.000000 1.000000
vt 1.000000 0.000000
vt 1.000000 1.000000
vt 1.000000 0.000000
vt 1.000000 1.000000
vt 1.000000 0.000000
vt 1.000000 1.000000
vt 0.000000 0.000000
vt 1.000000 0.000000
vt 1.000000 1.000000
vt 0.000000 0.000000
vt 1.000000 0.000000
vt 1.000000 1.000000
vt 0.000000 0.000000
vt 1.000000 0.000000
vt 1.000000 1.000000
vt 0.000000 0.000000
vt 1.000000 0.000000
vt 1.000000 1.000000
vt 0.000000 0.000000
vt 1.000000 0.000000
vt 1.000000 1.000000
vt 0.000000 0.000000
vt 1.000000 0.000000
vt 1.000000 1.000000
vt 0.000000 0.000000
vt 1.000000 0.000000
vt 0.000000 0.000000
vt 1.000000 0.000000
vt 0.000000 0.000000
vt 1.000000 0.000000
vt 0.000000 0.000000
vt 1.000000 0.000000
vt 0.000000 0.000000
vt 1.000000 0.000000
vt 0.000000 0.000000
vt 1.000000 0.000000
vt 0.000000 0.000000
vt 1.000000 0.000000
vt 0.000000 0.000000
vt 1.000000 0.000000
vt 0.000000 0.000000
vt 1.000000 0.000000
vt 0.000000 0.000000
vt 1.000000 1.000000
vt 1.000000 1.000000
vt 0.000000 0.000000
vt 0.000000 0.000000
vt 1.000000 1.000000
vt 1.000000 1.000000
vt 0.000000 0.000000
vt 0.000000 0.000000
vt 1.000000 1.000000
vt 1.000000 1.000000
vt 0.000000 0.000000
vt 0.000000 0.000000
vt 1.000000 1.000000
vt 1.000000 1.000000
vt 0.000000 0.000000
vt 0.000000 0.000000
vt 1.000000 1.000000
vt 1.000000 1.000000
vt 0.000000 0.000000
vt 1.000000 0.000000
vt 0.000000 0.000000
vt 1.000000 0.000000
vt 1.000000 0.000000
vt 0.000000 0.000000
vt 1.000000 0.000000
vt 1.000000 0.000000
vt 0.000000 0.000000
vt 1.000000 0.000000
vt 1.000000 0.000000
vt 0.000000 0.000000
vt 1.000000 0.000000
vt 1.000000 0.000000
vt 0.000000 0.000000
vt 1.000000 0.000000
vt 0.000000 0.000000
vt 1.000000 1.000000
vt 1.000000 1.000000
vt 0.000000 0.000000
vt 1.000000 1.000000
vt 1.000000 1.000000
vt 0.000000 0.000000
vt 1.000000 1.000000
vt 1.000000 1.000000
vt 0.000000 0.000000
vt 1.000000 0.000000
vt 0.000000 0.000000
vt 1.000000 0.000000
vt 1.000000 1.000000
vt 1.000000 1.000000
vn -0.0220 -0.9997 0.0055
vn 0.1241 -0.9766 0.1758
vn -0.0156 -0.9998 0.0113
vn -0.0156 -0.9998 -0.0113
vn -0.0220 -0.9997 -0.0055
vn 0.2213 -0.9553 0.1961
vn -0.0705 -0.9803 0.1843
vn -0.2943 -0.9553 -0.0286
vn -0.0856 -0.8801 -0.4670
vn 0.2247 -0.8419 -0.4907
vn 0.0493 0.9948 0.0894
vn -0.0442 -0.9897 0.1362
vn -0.1431 -0.9897 0.0000
vn -0.0442 -0.9897 -0.1362
vn 0.0493 0.9948 -0.0894
vn 0.1977 0.7781 0.5962
vn -0.1509 0.9207 0.3599
vn -0.3084 0.8805 -0.3600
vn -0.0411 0.5095 -0.8595
vn 0.7320 0.6513 -0.1997
vn -0.0229 0.9618 0.2729
vn 0.1771 0.8201 -0.5441
vn 0.1642 0.7601 -0.6288
vn -0.1466 0.8660 0.4780
vn -0.3620 0.5993 -0.7140
vn -0.1503 0.7704 -0.6196
vn -0.0892 0.9889 0.1187
vn -0.0754 0.9912 0.1089
vn -0.1493 0.9189 0.3651
vn -0.0582 0.9704 0.2346
vn -0.0704 0.9377 0.3401
vn 0.0370 0.7360 0.6759
vn -0.0233 0.9761 0.2159
vn 0.2084 0.8206 0.5322
vn 0.7320 0.6513 0.1997
vn 0.8897 0.3304 -0.3151
vn 0.5156 -0.0529 -0.8552
vn 0.2733 0.2496 -0.9290
vn -0.0397 0.3831 -0.9229
vn -0.3058 0.1429 -0.9413
vn -0.2612 0.1220 -0.9576
vn -0.9091 0.3666 -0.1977
vn -0.9578 0.2873 0.0000
vn -0.9091 0.3666 0.1977
vn -0.2452 0.1516 0.9575
vn -0.3035 0.1876 0.9342
vn 0.0012 0.3420 0.9397
vn 0.4400 0.0522 0.8965
vn 0.5156 -0.0529 0.8552
vn 0.8897 0.3304 0.3151
vn 0.1271 0.0686 -0.9895
vn 0.1065 -0.3991 -0.9107
vn -0.0705 -0.9803 -0.1843
vn -0.4175 -0.2154 -0.8828
vn -0.3511 0.5707 -0.7423
vn -0.2943 -0.9553 0.0286
vn -0.4175 -0.2154 0.8828
vn -0.3511 0.5707 0.7423
vn -0.0856 -0.8801 0.4670
vn 0.1244 -0.0551 0.9907
vn 0.1065 -0.3991 0.9107
vn 0.2247 -0.8419 0.4907
vn 0.9921 0.1256 0.0000
vn 0.6536 -0.7569 0.0000
vn 0.2213 -0.9553 -0.1961
vn 0.1326 -0.9799 -0.1492
vn -0.0105 -0.9954 -0.0948
vn -0.0640 -0.9456 -0.3190
vn -0.0374 -0.9435 -0.3293
vn -0.0396 -0.9988 -0.0288
vn -0.1156 -0.9875 0.1074
vn -0.1156 -0.9875 -0.1074
vn -0.0396 -0.9988 0.0288
vn -0.0374 -0.9435 0.3293
vn 0.1241 -0.9766 -0.1758
vn 0.0622 -0.9981 0.0000
vn -0.0203 -0.9998 0.0000
vn -0.0640 -0.9456 0.3190
vn -0.0105 -0.9954 0.0948
vn 0.1326 -0.9799 0.1492
usemtl None
s off
f 1/1/1 14/2/1 13/3/1
f 2/4/2 14/2/2 16/5/2
f 1/1/3 13/6/3 18/7/3
f 1/1/4 18/8/4 20/9/4
f 1/1/5 20/10/5 17/11/5
f 2/4/6 16/12/6 23/13/6
f 3/14/7 15/15/7 25/16/7
f 4/17/8 19/18/8 27/19/8
f 5/20/9 21/21/9 29/22/9
f 6/23/10 22/24/10 31/25/10
f 2/4/11 23/26/11 26/27/11
f 3/14/12 25/28/12 28/29/12
f 4/17/13 27/30/13 30/31/13
f 5/20/14 29/32/14 32/33/14
f 6/23/15 31/34/15 24/35/15
f 7/36/16 33/37/16 38/38/16
f 8/39/17 34/40/17 40/41/17
f 9/42/18 35/43/18 41/44/18
f 10/45/19 36/46/19 42/47/19
f 11/48/20 37/49/20 39/50/20
f 39/51/21 42/52/21 12/53/21
f 39/51/22 37/49/22 42/47/22
f 37/54/23 10/55/23 42/47/23
f 42/56/24 41/57/24 12/53/24
f 42/56/25 36/46/25 41/44/25
f 36/58/26 9/59/26 41/44/26
f 41/60/27 40/61/27 12/53/27
f 41/60/28 35/43/28 40/41/28
f 35/62/29 8/63/29 40/41/29
f 40/64/30 38/65/30 12/53/30
f 40/64/31 34/40/31 38/38/31
f 34/66/32 7/67/32 38/38/32
f 38/68/33 39/69/33 12/53/33
f 38/68/34 33/37/34 39/50/34
f 33/70/35 11/71/35 39/50/35
f 24/72/36 37/49/36 11/73/36
f 24/72/37 31/34/37 37/74/37
f 31/75/38 10/55/38 37/74/38
f 32/76/39 36/46/39 10/77/39
f 32/76/40 29/32/40 36/78/40
f 29/79/41 9/59/41 36/78/41
f 30/80/42 35/43/42 9/81/42
f 30/80/43 27/30/43 35/82/43
f 27/83/44 8/63/44 35/82/44
f 28/84/45 34/40/45 8/85/45
f 28/84/46 25/28/46 34/86/46
f 25/87/47 7/67/47 34/86/47
f 26/88/48 33/37/48 7/89/48
f 26/88/49 23/26/49 33/90/49
f 23/91/50 11/71/50 33/90/50
f 31/75/51 32/92/51 10/77/51
f 31/75/52 22/24/52 32/33/52
f 22/93/53 5/94/53 32/33/53
f 29/79/54 30/95/54 9/81/54
f 29/79/55 21/21/55 30/31/55
f 21/96/56 4/97/56 30/31/56
f 27/83/57 28/98/57 8/85/57
f 27/83/58 19/18/58 28/29/58
f 19/99/59 3/100/59 28/29/59
f 25/87/60 26/101/60 7/89/60
f 25/87/61 15/15/61 26/27/61
f 15/102/62 2/103/62 26/27/62
f 23/91/63 24/104/63 11/73/63
f 23/91/64 16/12/64 24/35/64
f 16/105/65 6/106/65 24/35/65
f 17/107/66 22/24/66 6/108/66
f 17/107/67 20/10/67 22/109/67
f 20/110/68 5/94/68 22/109/68
f 20/110/69 21/21/69 5/111/69
f 20/110/70 18/8/70 21/112/70
f 18/113/71 4/97/71 21/112/71
f 18/113/72 19/18/72 4/114/72
f 18/113/73 13/6/73 19/115/73
f 13/116/74 3/100/74 19/115/74
f 16/105/75 17/117/75 6/108/75
f 16/105/76 14/2/76 17/11/76
f 14/118/77 1/119/77 17/11/77
f 13/116/78 15/15/78 3/120/78
f 13/116/79 14/2/79 15/121/79
f 14/118/80 2/103/80 15/121/80
