# Blender v2.79 (sub 0) OBJ File: 'FloatingIsland.blend'
# www.blender.org
mtllib FloatingIsland.mtl
o Icosphere
v 9.677789 -5.730573 -0.206498
v 10.570841 -5.177788 -0.201362
v 9.401403 -5.177788 0.644142
v 8.783363 -5.177788 -0.206498
v 9.669614 -4.746627 -0.209147
v 9.711605 -4.746627 -0.208859
v 9.954174 -4.283358 0.644142
v 8.777749 -4.283358 -0.211844
v 9.655186 -4.714520 -0.208453
v 9.689457 -4.714520 -0.209147
v 10.572214 -4.283358 -0.206498
v 9.677789 -3.730573 -0.206498
vn 0.4239 -0.6903 0.5863
vn 0.0074 -0.0027 -1.0000
vn -0.4911 -0.7947 0.3568
vn -0.0017 -0.0027 -1.0000
vn 0.0069 -0.0026 -1.0000
vn 0.0058 -0.0058 -1.0000
vn 0.5509 -0.3405 0.7620
vn -0.8090 -0.0016 0.5878
vn -0.0111 0.0166 -0.9998
vn 0.0069 -0.0042 -1.0000
vn 0.8090 0.0021 0.5878
vn -0.5529 0.3417 0.7599
vn 0.0009 -0.0060 -1.0000
vn -0.0202 0.0125 -0.9997
vn 0.0055 -0.0052 -1.0000
vn 0.4911 0.7947 0.3568
vn -0.4265 0.6888 0.5862
vn 0.0048 0.0019 -1.0000
vn -0.0203 0.0025 -0.9998
vn 0.0017 0.0027 -1.0000
usemtl None
s off
f 1//1 2//1 3//1
f 2//2 1//2 6//2
f 1//3 3//3 4//3
f 1//4 4//4 5//4
f 1//5 5//5 6//5
f 2//6 6//6 11//6
f 3//7 2//7 7//7
f 4//8 3//8 8//8
f 5//9 4//9 9//9
f 6//10 5//10 10//10
f 2//11 11//11 7//11
f 3//12 7//12 8//12
f 4//13 8//13 9//13
f 5//14 9//14 10//14
f 6//15 10//15 11//15
f 7//16 11//16 12//16
f 8//17 7//17 12//17
f 9//18 8//18 12//18
f 10//19 9//19 12//19
f 11//20 10//20 12//20
