# Blender v2.79 (sub 0) OBJ File: ''
# www.blender.org
mtllib Platform.mtl
o Plane
v -1.002654 0.002036 1.008260
v 0.997346 0.002036 1.008260
v -1.002654 0.002036 -0.991740
v 0.997346 0.002036 -0.991740
v -1.002654 0.102762 1.008260
v 0.997346 0.102762 1.008260
v -1.002654 0.102762 -0.991740
v 0.997346 0.102762 -0.991740
v -0.849892 0.078202 0.849281
v 0.832149 0.078202 0.849281
v -0.849892 0.078202 -0.832760
v 0.832149 0.078202 -0.832760
vt 0.000000 0.000000
vt 1.000000 0.000000
vt 1.000000 1.000000
vt 0.000000 1.000000
vt 0.000000 0.000000
vt 1.000000 0.000000
vt 1.000000 1.000000
vt 0.000000 1.000000
vt 0.000000 0.000000
vt 1.000000 0.000000
vt 1.000000 1.000000
vt 0.000000 1.000000
vt 0.000000 0.000000
vt 1.000000 0.000000
vt 1.000000 1.000000
vt 0.000000 1.000000
vt 0.000000 0.000000
vt 1.000000 1.000000
vt 0.000000 1.000000
vt 1.000000 0.000000
vt 1.000000 1.000000
vt 0.000000 1.000000
vt 0.000000 0.000000
vt 1.000000 0.000000
vt 1.000000 1.000000
vt 0.000000 1.000000
vt 0.000000 0.000000
vt 1.000000 0.000000
vt 1.000000 1.000000
vt 0.000000 1.000000
vt 0.000000 0.000000
vt 1.000000 0.000000
vt 1.000000 1.000000
vt 0.000000 1.000000
vt 0.000000 0.000000
vt 1.000000 0.000000
vn 0.0000 -1.0000 0.0000
vn -0.1471 0.9891 0.0000
vn 1.0000 0.0000 0.0000
vn -1.0000 0.0000 0.0000
vn 0.0000 0.0000 -1.0000
vn 0.0000 0.0000 1.0000
vn 0.1587 0.9873 0.0000
vn 0.0000 0.9883 0.1527
vn 0.0000 0.9883 -0.1527
vn 0.0000 1.0000 0.0000
usemtl None
s off
f 1/1/1 3/2/1 4/3/1 2/4/1
f 6/5/2 8/6/2 12/7/2 10/8/2
f 2/9/3 4/10/3 8/11/3 6/12/3
f 3/13/4 1/14/4 5/15/4 7/16/4
f 4/17/5 3/2/5 7/18/5 8/19/5
f 1/1/6 2/20/6 6/21/6 5/22/6
f 7/23/7 5/24/7 9/25/7 11/26/7
f 8/27/8 7/28/8 11/29/8 12/30/8
f 5/31/9 6/32/9 10/33/9 9/34/9
usemtl None_Png_(1).png
f 9/35/10 10/36/10 12/7/10 11/26/10
